<svg version="1.2" baseProfile="tiny-ps" xmlns="http://www.w3.org/2000/svg" viewBox="0 0 629 380" width="629" height="380">
	<title>New Project</title>
	<style>
		tspan { white-space:pre }
	</style>
	<path id="lang " fill="#000000" aria-label="lang"  d="M45.88 175L29.72 175L29.72 82.93Q29.72 58.69 28.15 44.56L44.31 44.56L44.31 136.3Q44.31 141.52 44.41 149.02Q44.62 156.41 44.94 163.48Q45.36 170.54 45.88 175ZM92.26 176.96Q81.14 176.96 73.9 170.11Q66.66 163.26 66.66 154.24Q66.66 148.04 69.39 141.85Q72.22 135.65 79.04 131.09Q85.97 126.52 98.14 125.33Q100.87 125 105.27 124.56Q109.68 124.13 113.67 123.8Q117.76 123.37 119.34 123.26L119.34 117.17Q119.34 109.78 114.3 106.52Q109.37 103.26 100.45 103.26Q94.26 103.26 87.96 105.87Q81.77 108.48 74.95 113.48Q74.95 110.76 75.16 105.54Q75.37 100.22 75.68 97.61Q81.77 94.89 88.38 92.61Q95.1 90.22 104.02 90.22Q117.66 90.22 125.74 96.85Q133.92 103.37 133.92 113.04L133.92 144.89Q133.92 153.7 135.5 160.98Q137.17 168.15 139.8 175L125.63 175Q124.9 173.04 123.74 169.67Q122.59 166.3 121.75 162.39Q114.72 170.11 107.16 173.59Q99.61 176.96 92.26 176.96ZM94.57 163.59Q100.66 163.59 106.43 160.98Q112.31 158.37 119.34 148.59L119.34 134.67Q117.45 134.78 113.46 135.22Q109.58 135.54 105.48 135.98Q101.39 136.41 98.87 136.74Q88.91 137.93 84.81 142.28Q80.83 146.52 80.83 152.17Q80.83 157.61 84.5 160.65Q88.17 163.59 94.57 163.59ZM174.11 175L159.53 175Q159.53 175 159.53 169.57Q159.53 164.13 159.53 155.98Q159.53 147.72 159.53 139.35Q159.53 130.87 159.53 124.89Q159.53 112.93 158.16 104.56Q156.9 96.09 155.54 91.85L169.7 91.85Q170.65 94.46 171.49 99.67Q172.43 104.89 172.85 107.82Q180.41 98.48 188.07 94.35Q195.73 90.22 204.02 90.22Q216.5 90.22 223.22 98.8Q229.94 107.28 229.94 124.13Q229.94 128.15 229.94 134.56Q229.94 140.87 229.94 147.83Q229.94 154.78 229.94 160.98Q229.94 167.17 229.94 171.09Q229.94 175 229.94 175L215.35 175Q215.35 175 215.35 169.78Q215.35 164.46 215.35 156.85Q215.35 149.13 215.35 141.85Q215.35 134.46 215.35 130.22Q215.35 114.89 211.47 109.78Q207.69 104.56 199.61 104.56Q193.94 104.56 188.7 108.04Q183.56 111.52 179.67 116.85Q175.9 122.17 174.11 127.72L174.11 175ZM282.61 216.09Q273.48 216.09 264.25 213.48Q255.12 210.76 248.93 205.33Q242.84 199.78 242.84 191.3Q242.84 177.72 263.3 168.91Q263.3 168.91 266.66 169.57Q270.02 170.22 273.38 171.2Q276.84 172.17 277.05 173.37Q268.45 176.41 264.25 179.24Q260.05 182.07 258.69 184.67Q257.43 187.17 257.43 189.67Q257.43 194.57 263.93 199.46Q270.44 204.35 283.77 204.35Q290.9 204.35 296.78 201.96Q302.76 199.46 306.22 195.87Q309.79 192.28 309.79 188.8Q309.79 183.91 304.23 180.54Q298.67 177.17 283.35 175.33Q266.77 173.48 260.68 168.37Q254.7 163.26 254.7 157.5Q254.7 153.8 257.74 149.56Q260.79 145.22 266.45 142.83L279.88 146.52Q273.06 148.59 270.34 151.2Q267.61 153.7 267.61 155.87Q267.61 158.15 272.75 160.54Q277.89 162.93 293.21 164.89Q310.73 166.96 317.45 172.83Q324.27 178.7 324.27 188.04Q324.27 196.74 317.77 203.04Q311.36 209.35 301.71 212.72Q292.16 216.09 282.61 216.09ZM281.04 148.59Q272.12 148.59 264.98 144.78Q257.85 140.98 253.65 134.46Q249.56 127.83 249.56 119.56Q249.56 111.19 253.65 104.56Q257.85 97.93 264.98 94.13Q272.12 90.22 281.04 90.22Q289.96 90.22 297.09 94.13Q304.23 97.93 308.32 104.56Q312.52 111.19 312.52 119.56Q312.52 127.83 308.32 134.46Q304.23 140.98 297.09 144.78Q289.96 148.59 281.04 148.59ZM281.04 137.17Q288.91 137.17 293.95 132.17Q299.09 127.17 299.09 119.56Q299.09 112.06 293.95 107.06Q288.91 102.06 281.04 102.06Q273.17 102.06 268.03 107.06Q262.88 112.06 262.88 119.56Q262.88 127.17 268.03 132.17Q273.17 137.17 281.04 137.17ZM303.07 107.82L297.93 98.37Q303.18 94.89 310.21 92.82Q317.35 90.65 323.12 90.22L322.38 103.26Q318.08 103.37 313.25 104.46Q308.53 105.43 303.07 107.82Z" />
	<path id="X " fill="#000000" aria-label="X"  d="M313.04 205.04L292.48 84.81L321.36 97.7L337.78 193.58L420.36 141.86L449.24 154.75L342.8 221.66L364.87 355.32L335.99 342.44L317.8 233.01L223.81 292.4L194.8 279.46L313.04 205.04Z" />
	<path id="change " fill="#000000" aria-label="change"  d="M257.08 273.27L262.55 281.81Q257.31 282.15 252.72 283.62Q248.15 285.01 244.18 287.55Q235.29 293.24 234 302.04Q232.68 310.8 239.19 320.97Q245.71 331.15 254.25 333.66Q262.75 336.13 271.64 330.44Q275.61 327.9 278.81 324.38Q282.04 320.77 284.54 316.16L289.94 324.6Q287.27 328.83 283.72 332.36Q280.22 335.86 275.6 338.82Q263.04 346.86 250.59 343.7Q238.14 340.54 229.56 327.14Q220.86 313.54 223.31 300.98Q225.82 288.38 238.83 280.06Q243.05 277.36 247.64 275.68Q252.2 273.95 257.08 273.27ZM331.93 253.42L353.41 286.98L344.28 292.83L322.99 259.56Q317.93 251.67 312.35 249.72Q306.76 247.77 300.6 251.71Q293.21 256.44 291.96 263.89Q290.7 271.34 295.92 279.48L316.03 310.91L306.85 316.79L257.4 239.54L266.58 233.66L285.97 263.95Q286.04 256.83 288.87 251.52Q291.74 246.18 297.55 242.46Q307.13 236.33 315.86 239.14Q324.56 241.9 331.93 253.42ZM388.09 225.37L379.01 231.19Q367.94 238.28 365.29 243.54Q362.64 248.81 366.55 254.91Q369.66 259.78 374.69 260.62Q379.72 261.39 385.23 257.86Q392.83 253 393.96 244.71Q395.12 236.35 389.4 227.41L388.09 225.37ZM394.81 215.75L415.12 247.48L405.99 253.32L400.58 244.88Q400.7 251.95 397.59 257.37Q394.45 262.74 387.7 267.06Q379.16 272.53 371.04 271Q362.95 269.4 357.8 261.36Q351.79 251.97 355 243.2Q358.25 234.4 370.71 226.43L383.52 218.23L382.95 217.33Q378.91 211.03 372.55 210.27Q366.2 209.43 358.71 214.23Q353.94 217.28 350.15 221.32Q346.37 225.35 343.66 230.3L338.26 221.87Q342.03 216.72 346.14 212.76Q350.22 208.75 354.69 205.89Q366.75 198.16 376.72 200.6Q386.68 203.05 394.81 215.75ZM458.67 172.29L480.15 205.85L471.02 211.69L449.73 178.43Q444.67 170.54 439.08 168.59Q433.5 166.64 427.34 170.58Q419.94 175.31 418.69 182.76Q417.44 190.21 422.65 198.35L442.77 229.78L433.59 235.65L397.99 180.05L407.18 174.18L412.71 182.81Q412.77 175.7 415.6 170.39Q418.48 165.05 424.29 161.33Q433.87 155.2 442.6 158.01Q451.3 160.77 458.67 172.29ZM516.75 142.32Q510.39 132.39 502.78 129.56Q495.21 126.71 487.81 131.45Q480.47 136.15 479.84 144.25Q479.27 152.31 485.62 162.24Q491.95 172.12 499.51 174.98Q507.13 177.8 514.48 173.1Q521.87 168.36 522.45 160.29Q523.07 152.2 516.75 142.32ZM508.5 109.31L539.67 158.01Q548.76 172.21 546.91 183.2Q545.02 194.13 532.01 202.46Q527.2 205.54 522.48 207.58Q517.74 209.57 512.76 210.65L507.08 201.77Q512.49 201.38 517.08 199.91Q521.67 198.44 525.74 195.84Q534.73 190.08 536.21 182.56Q537.66 174.98 531.59 165.5L528.7 160.98Q529.01 167.71 526.15 172.97Q523.29 178.23 517.14 182.17Q506.91 188.72 495.66 184.93Q484.42 181.14 476.19 168.28Q467.93 155.37 469.19 143.57Q470.46 131.78 480.68 125.23Q486.84 121.29 492.82 120.89Q498.79 120.5 504.77 123.6L499.36 115.16L508.5 109.31ZM591.21 92.34L594.07 96.81L552.07 123.7Q558.7 132.75 566.94 134.47Q575.2 136.11 584.29 130.29Q589.55 126.93 593.64 122.49Q597.78 118.02 600.99 112.32L606.52 120.96Q602.94 126.19 598.47 130.59Q594.01 134.99 588.7 138.39Q575.39 146.91 562.64 144.15Q549.94 141.36 541.49 128.16Q532.75 114.51 534.98 101.81Q537.23 89.03 549.74 81.03Q560.96 73.84 572.1 76.93Q583.26 79.93 591.21 92.34ZM547.82 116.41L580.36 95.51Q575.46 88.08 568.48 86.25Q561.55 84.38 554.79 88.71Q547.15 93.6 545.3 100.87Q543.5 108.12 547.82 116.41Z" />
</svg>